<?xml version="1.0" encoding="UTF-8"?>
<svg version="1.1" xmlns="http://www.w3.org/2000/svg" width="67" height="61">
<path d="M0 0 C6.93277884 5.13125029 11.60195205 10.5866805 14 19 C15.2108101 29.26860108 14.06678667 37.50400717 8 46 C2.11643171 52.69621585 -3.60786233 56.52244521 -12.484375 57.30859375 C-21.92624791 57.62142689 -28.74073928 56.22727362 -36.75 51.3125 C-44.44921503 43.39941789 -47.84929736 34.95608213 -48 24 C-47.22253688 15.03037922 -42.76704688 7.82280778 -36 2 C-25.55635439 -5.3732138 -11.14638202 -7.452777 0 0 Z " fill="#FDFDFD" transform="translate(50,4)"/>
<path d="M0 0 C2.9375 1 2.9375 1 5 2 C5.66 1.34 6.32 0.68 7 0 C11.0351152 -0.87064726 14.65598965 -0.80970151 18.23046875 1.34375 C19.57955846 2.41694706 20.89802682 3.53028844 22.17578125 4.6875 C24.16660203 6.3893533 24.16660203 6.3893533 28 6 C28.33 5.34 28.66 4.68 29 4 C28.01 4 27.02 4 26 4 C26.33 3.01 26.66 2.02 27 1 C29.475 1.495 29.475 1.495 32 2 C32.8125 4.6875 32.8125 4.6875 33 8 C31.0625 10.875 31.0625 10.875 28 13 C22.35668703 14.00773446 18.80949024 12.62323573 13.5625 10.4375 C7.90537367 8.14988325 3.86767562 7.03359258 -2 9 C-4.5659007 10.2346889 -7.06670533 11.56474633 -9.578125 12.90625 C-13.41266659 14.63797846 -15.83635089 14.63513292 -20 14 C-23 12.3125 -23 12.3125 -25 10 C-25.58959753 6.97831263 -25.45767507 5.68651261 -23.75 3.125 C-22 2 -22 2 -19.8125 2.3125 C-19.214375 2.539375 -18.61625 2.76625 -18 3 C-18.33 3.99 -18.66 4.98 -19 6 C-19.66 5.67 -20.32 5.34 -21 5 C-21 5.99 -21 6.98 -21 8 C-16.93050349 6.98262587 -14.24745748 5.50740151 -11.0625 2.875 C-7.27685706 -0.08704886 -4.8802922 -0.73664788 0 0 Z " fill="#0D0D0D" transform="translate(29,25)"/>
</svg>
